<svg xmlns="http://www.w3.org/2000/svg" viewBox="0 0 572.1 375"><defs><style>.cls-1{fill:#1d8ecc;}.cls-2{fill:#1979ad;}.cls-3{fill:#26c281;}.cls-14,.cls-16,.cls-4,.cls-6,.cls-7,.cls-9{fill:none;stroke-width:3px;}.cls-4{stroke:#fff;}.cls-4,.cls-6,.cls-7,.cls-9{stroke-linecap:round;stroke-linejoin:round;}.cls-5{fill:#049372;}.cls-6{stroke:#049372;}.cls-6,.cls-9{stroke-dasharray:26 12 0 12 163 0;}.cls-7{stroke:#26c281;}.cls-8{fill:#037b5f;}.cls-9{stroke:#037d61;}.cls-10{fill:#212f3c;}.cls-11{fill:#22a7f0;}.cls-12{fill:#fff;}.cls-13{fill:#eceef0;}.cls-14{stroke:#bdc3c7;}.cls-15{fill:#5b6c7d;}.cls-16{stroke:#1d8ecc;}.cls-17{fill:#036951;}.cls-18{fill:#20a56e;}.cls-19{fill:#4fce99;}.cls-20{fill:#037d61;}</style></defs><title>logo_pricetag</title><g id="Layer_2" data-name="Layer 2"><g id="Layer_1-2" data-name="Layer 1"><rect class="cls-1" x="143.75" y="25" width="37.5" height="37.5"/><rect class="cls-2" x="143.75" y="25" width="37.5" height="6.25"/><path class="cls-3" d="M477.5,133.4,402.5,3.5a6,6,0,0,0-8.2-2.2L134.5,151.3a6,6,0,0,0-2.2,8.2l75,129.9a6,6,0,0,0,8.2,2.2l259.81-150A6,6,0,0,0,477.5,133.4Z"/><path class="cls-4" d="M343.6,148.55a32.52,32.52,0,0,0-38.87-14.39L289.9,108.49a15.18,15.18,0,0,1,14.9,7.47,6,6,0,1,0,10.39-6A27.2,27.2,0,0,0,283.62,97.6l-1.45-2.51a6,6,0,0,0-8.2-2.2h0a6,6,0,0,0-2.2,8.19l1.45,2.5a27.16,27.16,0,0,0,26.49,45.89l20.35,35.24a20.5,20.5,0,0,1-22.3-9.71,6,6,0,1,0-10.39,6,32.51,32.51,0,0,0,38.86,14.39l1.39,2.41a6,6,0,0,0,8.2,2.2h0a6,6,0,0,0,2.2-8.19l-1.39-2.41A32.51,32.51,0,0,0,343.6,148.55Zm-65.07-17.43a15.16,15.16,0,0,1,1-16.64l13.93,24.12A15.18,15.18,0,0,1,278.53,131.12Zm51.93,47.6L310.9,144.85a20.46,20.46,0,0,1,19.56,33.87Z"/><path class="cls-5" d="M391.61,146.63a6,6,0,0,1-6-10.39,31.5,31.5,0,1,0-31.5-54.56,6,6,0,0,1-6-10.39,43.5,43.5,0,0,1,43.5,75.34Z"/><path class="cls-5" d="M261.7,221.63a43.5,43.5,0,0,1-43.5-75.34,6,6,0,1,1,6,10.39,31.5,31.5,0,1,0,31.5,54.56,6,6,0,0,1,6,10.39Z"/><path class="cls-5" d="M224.2,156.67l-32.47,18.75a6,6,0,1,1-6-10.39l32.48-18.75a6,6,0,1,1,6,10.39Z"/><path class="cls-5" d="M261.7,221.63l-32.48,18.75a6,6,0,0,1-6-10.39l32.48-18.75a6,6,0,0,1,6,10.39Z"/><path class="cls-5" d="M386.58,62.92,354.11,81.67a6,6,0,0,1-6-10.39l32.48-18.75a6,6,0,1,1,6,10.39Z"/><path class="cls-5" d="M424.08,127.87l-32.48,18.75a6,6,0,0,1-6-10.39l32.48-18.75a6,6,0,0,1,6,10.39Z"/><polygon class="cls-6" points="214.69 278.21 464.11 134.21 395.11 14.7 145.69 158.7 214.69 278.21 214.69 278.21"/><path class="cls-5" d="M571.89,234.69,533.07,89.8a6,6,0,0,0-7.35-4.24L235.95,163.2a6,6,0,0,0-4.24,7.35l38.82,144.89a6,6,0,0,0,7.35,4.24L567.65,242A6,6,0,0,0,571.89,234.69Z"/><path class="cls-7" d="M438.63,214.67a32.53,32.53,0,0,0-33.82-24l-7.68-28.64a15.18,15.18,0,0,1,12.46,11.07,6,6,0,1,0,11.59-3.1,27.2,27.2,0,0,0-27.3-20.1l-.75-2.8a6,6,0,0,0-7.35-4.25h0a6,6,0,0,0-4.24,7.34l.75,2.79A27.16,27.16,0,0,0,396,204.21l10.54,39.31a20.49,20.49,0,0,1-19-15.15,6,6,0,0,0-11.59,3.11,32.51,32.51,0,0,0,33.81,24l.72,2.69a6,6,0,0,0,7.35,4.25h0A6,6,0,0,0,422,255l-.72-2.69A32.51,32.51,0,0,0,438.63,214.67ZM380.29,181a15.15,15.15,0,0,1,5.25-15.83l7.21,26.9A15.18,15.18,0,0,1,380.29,181Zm37.84,59.42L408,202.63a20.46,20.46,0,0,1,10.13,37.78Z"/><path class="cls-8" d="M485.5,225.23a6,6,0,0,1-3.11-11.59,31.5,31.5,0,1,0-16.3-60.85A6,6,0,1,1,463,141.19a43.5,43.5,0,1,1,22.52,84Z"/><path class="cls-8" d="M340.61,264.05a43.5,43.5,0,0,1-22.52-84,6,6,0,1,1,3.11,11.59,31.5,31.5,0,1,0,16.3,60.85,6,6,0,1,1,3.11,11.59Z"/><path class="cls-8" d="M321.2,191.61,285,201.31a6,6,0,1,1-3.11-11.59L318.1,180a6,6,0,1,1,3.11,11.59Z"/><path class="cls-8" d="M340.61,264.05l-36.22,9.71a6,6,0,1,1-3.11-11.59l36.22-9.71a6,6,0,1,1,3.11,11.59Z"/><path class="cls-8" d="M502.31,143.08l-36.22,9.71A6,6,0,1,1,463,141.19l36.22-9.71a6,6,0,0,1,3.11,11.59Z"/><path class="cls-8" d="M521.73,215.52l-36.22,9.71a6,6,0,0,1-3.11-11.59l36.22-9.71a6,6,0,0,1,3.11,11.59Z"/><polygon class="cls-9" points="280.56 306.54 558.75 232 523.03 98.7 244.85 173.24 280.56 306.54 280.56 306.54"/><path class="cls-8" d="M534.22,237l9.28-2.49V219a6,6,0,0,0-6-6h-10v39.8l16-4.29V237.64L535,239.92a1.74,1.74,0,0,1-.39,0,1.52,1.52,0,0,1-1.45-1.11h0A1.52,1.52,0,0,1,534.22,237Z"/><path class="cls-10" d="M534.22,237a1.52,1.52,0,0,0-1.07,1.84h0A1.52,1.52,0,0,0,534.6,240a1.74,1.74,0,0,0,.39,0l8.51-2.28v-3.11Z"/><path class="cls-3" d="M525,213H225a6,6,0,0,0-6,6V369a6,6,0,0,0,6,6H525a6,6,0,0,0,6-6V219A6,6,0,0,0,525,213Z"/><path class="cls-4" d="M407.46,315.17A32.53,32.53,0,0,0,381,283.27V253.62a15.18,15.18,0,0,1,9.17,13.92,6,6,0,1,0,12,0A27.2,27.2,0,0,0,381,241.05v-2.89a6,6,0,0,0-6-6h0a6,6,0,0,0-6,6V241a27.16,27.16,0,0,0,0,53v40.7a20.49,20.49,0,0,1-14.46-19.56,6,6,0,0,0-12,0A32.51,32.51,0,0,0,369,347.06v2.78a6,6,0,0,0,6,6h0a6,6,0,0,0,6-6v-2.78A32.51,32.51,0,0,0,407.46,315.17Zm-47.63-47.63A15.15,15.15,0,0,1,369,253.61v27.85A15.19,15.19,0,0,1,359.83,267.54ZM381,334.73V295.61a20.46,20.46,0,0,1,0,39.12Z"/><path class="cls-5" d="M450,337.5a6,6,0,1,1,0-12,31.5,31.5,0,0,0,0-63,6,6,0,0,1,0-12,43.5,43.5,0,0,1,0,87Z"/><path class="cls-5" d="M300,337.5a43.5,43.5,0,0,1,0-87,6,6,0,1,1,0,12,31.5,31.5,0,0,0,0,63,6,6,0,0,1,0,12Z"/><path class="cls-5" d="M300,262.5H262.5a6,6,0,1,1,0-12H300a6,6,0,1,1,0,12Z"/><path class="cls-5" d="M300,337.5H262.5a6,6,0,1,1,0-12H300a6,6,0,0,1,0,12Z"/><path class="cls-5" d="M487.5,262.5H450a6,6,0,0,1,0-12h37.5a6,6,0,1,1,0,12Z"/><path class="cls-5" d="M487.5,337.5H450a6,6,0,1,1,0-12h37.5a6,6,0,1,1,0,12Z"/><polygon class="cls-6" points="231 363 519 363 519 225 231 225 231 363 231 363"/><circle class="cls-11" cx="162.5" cy="212.5" r="162.5"/><circle class="cls-1" cx="162.5" cy="212.5" r="137.5"/><rect class="cls-11" x="112.5" width="100" height="25"/><circle class="cls-12" cx="162.5" cy="212.5" r="125"/><circle class="cls-13" cx="162.5" cy="212.5" r="112.5"/><circle class="cls-12" cx="162.5" cy="212.5" r="100"/><line class="cls-14" x1="162.5" y1="100" x2="162.5" y2="125"/><line class="cls-14" x1="162.5" y1="100" x2="162.5" y2="112.5"/><line class="cls-14" x1="106.25" y1="115.07" x2="112.5" y2="125.9"/><line class="cls-14" x1="65.07" y1="156.25" x2="75.9" y2="162.5"/><line class="cls-14" x1="50" y1="212.5" x2="75" y2="212.5"/><line class="cls-14" x1="50" y1="212.5" x2="62.5" y2="212.5"/><line class="cls-14" x1="65.07" y1="268.75" x2="75.9" y2="262.5"/><line class="cls-14" x1="106.25" y1="309.93" x2="112.5" y2="299.1"/><line class="cls-14" x1="162.5" y1="325" x2="162.5" y2="300"/><line class="cls-14" x1="162.5" y1="325" x2="162.5" y2="312.5"/><line class="cls-14" x1="218.75" y1="309.93" x2="212.5" y2="299.1"/><line class="cls-14" x1="259.93" y1="268.75" x2="249.1" y2="262.5"/><line class="cls-14" x1="275" y1="212.5" x2="250" y2="212.5"/><line class="cls-14" x1="275" y1="212.5" x2="262.5" y2="212.5"/><line class="cls-14" x1="259.93" y1="156.25" x2="249.1" y2="162.5"/><line class="cls-14" x1="218.75" y1="115.07" x2="212.5" y2="125.9"/><polygon class="cls-15" points="156.25 150 168.75 137.5 168.75 218.75 156.25 218.75 156.25 150"/><polygon class="cls-15" points="218.75 218.75 162.5 218.75 162.5 206.25 206.25 206.25 218.75 218.75"/><line class="cls-16" x1="112.5" y1="25" x2="112.5"/><line class="cls-16" x1="118.75" y1="25" x2="118.75"/><line class="cls-16" x1="125" y1="25" x2="125"/><line class="cls-16" x1="131.25" y1="25" x2="131.25"/><line class="cls-16" x1="137.5" y1="25" x2="137.5"/><line class="cls-16" x1="143.75" y1="25" x2="143.75"/><line class="cls-16" x1="150" y1="25" x2="150"/><line class="cls-16" x1="156.25" y1="25" x2="156.25"/><line class="cls-16" x1="162.5" y1="25" x2="162.5"/><line class="cls-16" x1="168.75" y1="25" x2="168.75"/><line class="cls-16" x1="175" y1="25" x2="175"/><line class="cls-16" x1="181.25" y1="25" x2="181.25"/><line class="cls-16" x1="187.5" y1="25" x2="187.5"/><line class="cls-16" x1="193.75" y1="25" x2="193.75"/><line class="cls-16" x1="200" y1="25" x2="200"/><line class="cls-16" x1="206.25" y1="25" x2="206.25"/><line class="cls-16" x1="212.5" y1="25" x2="212.5"/><path class="cls-8" d="M534.22,237l9.28-2.49V219a6,6,0,0,0-6-6h-10v.55A6,6,0,0,1,531,219v32.86l12.5-3.35V237.64L535,239.92a1.74,1.74,0,0,1-.39,0,1.5,1.5,0,0,1-.38-2.95Z"/><path class="cls-17" d="M534.22,237a1.52,1.52,0,0,0-1.07,1.84h0a1.52,1.52,0,0,0,1.45,1.11,1.74,1.74,0,0,0,.39,0l8.51-2.28v-3.11Z"/><path class="cls-18" d="M315.44,133.84a30.69,30.69,0,0,0-9.83,1.63c1.41,2.62,2.77,5.28,4,8l11.06-3q-1.65-3.34-3.45-6.59C316.65,133.87,316,133.84,315.44,133.84Z"/><path class="cls-18" d="M290.24,112.07l-1.63-2.83a1.5,1.5,0,0,1,1.13-2.24,16.68,16.68,0,0,1,11,2.59q-5-6.08-10.52-11.65A25.5,25.5,0,0,0,284.07,99a1.5,1.5,0,0,1-1.74-.68l-1.45-2.51a4.49,4.49,0,0,0-6.11-1.67l0,0a4.45,4.45,0,0,0-.48.34A163.44,163.44,0,0,1,290.24,112.07Z"/><path class="cls-18" d="M272,92.47a7.41,7.41,0,0,1,1.17-.85l0,0a7.5,7.5,0,0,1,10.25,2.75l.86,1.49a28.53,28.53,0,0,1,3.12-.63Q282,89.94,276,85.2l-7.37,4.25Q270.35,90.94,272,92.47Z"/><path class="cls-18" d="M303.51,116.7a13.71,13.71,0,0,0-11.05-6.8l13,22.45a33.71,33.71,0,0,1,10-1.52h.08q-3.13-5.38-6.66-10.49A7.52,7.52,0,0,1,303.51,116.7Z"/><path class="cls-18" d="M273.45,83.21q-4.59-3.5-9.43-6.68l-6.8,3.92q4.62,3.31,9,6.94Z"/><path class="cls-19" d="M291.66,106.88a16.63,16.63,0,0,0-1.92.11,1.5,1.5,0,0,0-1.13,2.24l1.63,2.83a162.78,162.78,0,0,1,15.37,23.4,30.69,30.69,0,0,1,9.83-1.62c.61,0,1.21,0,1.81.06q-.85-1.54-1.73-3.06h-.08a33.71,33.71,0,0,0-10,1.52l-13-22.45a13.71,13.71,0,0,1,11.05,6.8,7.52,7.52,0,0,0,5.35,3.65q-3.83-5.55-8.1-10.77A16.74,16.74,0,0,0,291.66,106.88Z"/><path class="cls-19" d="M283.48,94.35a7.5,7.5,0,0,0-10.25-2.75l0,0a7.41,7.41,0,0,0-1.17.85c.75.68,1.5,1.37,2.23,2.07a4.45,4.45,0,0,1,.48-.34l0,0a4.49,4.49,0,0,1,6.11,1.67l1.45,2.51a1.5,1.5,0,0,0,1.74.68,25.5,25.5,0,0,1,6.17-1.09q-1.38-1.38-2.78-2.73a28.53,28.53,0,0,0-3.12.63Z"/><path class="cls-20" d="M276,85.2q-1.27-1-2.56-2L266.2,87.4q1.23,1,2.44,2.05Z"/><path class="cls-8" d="M326.26,153l-11.35,3a161.26,161.26,0,0,1,6.89,24.19,6,6,0,0,1,1.71,10.2A163.87,163.87,0,0,1,325,212.5c0,.17,0,.33,0,.5h12.5c0-.17,0-.33,0-.5A162.09,162.09,0,0,0,326.26,153Z"/><path class="cls-5" d="M313.84,153.2l11.28-3q-2-4.93-4.41-9.69l-11.06,3Q311.9,148.25,313.84,153.2Z"/><path class="cls-17" d="M325.45,184.26a6,6,0,0,0-3.66-4q1,5,1.71,10.2A6,6,0,0,0,325.45,184.26Z"/><path class="cls-17" d="M314.91,156l11.35-3c-.37-.94-.76-1.87-1.14-2.8l-11.28,3Q314.39,154.61,314.91,156Z"/><path class="cls-18" d="M232.51,359.17v2.33h7.42a162.5,162.5,0,0,0,38.91-24H266.32A162.63,162.63,0,0,1,232.51,359.17Z"/><path class="cls-18" d="M292.63,324.62A161.92,161.92,0,0,0,336.9,226.5H324.4a161.81,161.81,0,0,1-40.82,94.37A31.3,31.3,0,0,0,292.63,324.62Z"/><path class="cls-18" d="M231,364.5h0a1.52,1.52,0,0,1-.74-.21,1.61,1.61,0,0,1-.59-.65.28.28,0,0,0,0-.08h0a1.47,1.47,0,0,1-.11-.57v-2.43q-5.16,2.34-10.5,4.32V369q6.91-1.94,13.56-4.47Z"/><path class="cls-18" d="M324.63,223.5h12.5q.35-5.21.37-10.5H325Q325,218.29,324.63,223.5Z"/><path class="cls-20" d="M279.27,325.5h12.5l.86-.88a31.3,31.3,0,0,1-9.05-3.75Q281.47,323.22,279.27,325.5Z"/><path class="cls-20" d="M291.77,325.5h-12.5a163.28,163.28,0,0,1-13,12h12.51A163.42,163.42,0,0,0,291.77,325.5Z"/><path class="cls-20" d="M232.51,361.5v-2.33c-1,.48-2,.95-3,1.4V363a1.47,1.47,0,0,0,.11.57h0a.28.28,0,0,1,0,.08,1.61,1.61,0,0,0,.59.65,1.52,1.52,0,0,0,.74.21h1.59q3.73-1.41,7.37-3Z"/><path class="cls-20" d="M324.4,226.5h12.5q.13-1.5.23-3h-12.5Q324.53,225,324.4,226.5Z"/></g></g></svg>