<?xml version="1.0" encoding="utf-8"?>
<!-- Generator: Adobe Illustrator 21.0.0, SVG Export Plug-In . SVG Version: 6.00 Build 0)  -->
<svg version="1.1" id="Capa_1" xmlns="http://www.w3.org/2000/svg" xmlns:xlink="http://www.w3.org/1999/xlink" x="0px" y="0px"
	 viewBox="0 0 253 253" style="enable-background:new 0 0 253 253;" xml:space="preserve">
<g>
	<g>
		<path d="M198,32.5h-38.3C157.8,15.9,143.7,3,126.7,3c-17.1,0-31.2,12.9-33.1,29.5H55.3c-15.5,0-28.1,12.6-28.1,28.1V62
			c0,11.8,7.4,22,17.8,26.1v132.8c0,15.5,12.6,28.1,28.1,28.1h107.2c15.5,0,28.1-12.6,28.1-28.1V88.1c10.4-4.1,17.8-14.3,17.8-26.1
			v-1.4C226.1,45.1,213.5,32.5,198,32.5z M126.7,16.3c9.7,0,17.8,7,19.6,16.1h-39.2C108.9,23.3,117,16.3,126.7,16.3z M195,220.9
			c0,8.1-6.6,14.8-14.8,14.8H73.1c-8.1,0-14.8-6.6-14.8-14.8V90.1H195V220.9z M212.8,62c0,8.1-6.6,14.8-14.8,14.8H55.3
			c-8.1,0-14.8-6.6-14.8-14.8v-1.4c0-8.1,6.6-14.8,14.8-14.8H198c8.1,0,14.8,6.6,14.8,14.8L212.8,62L212.8,62z"/>
		<path d="M90.9,218.6c3.7,0,6.7-3,6.7-6.7v-75c0-3.7-3-6.7-6.7-6.7c-3.7,0-6.7,3-6.7,6.7v75C84.3,215.6,87.3,218.6,90.9,218.6z"/>
		<path d="M126.7,218.6c3.7,0,6.7-3,6.7-6.7v-75c0-3.7-3-6.7-6.7-6.7c-3.7,0-6.7,3-6.7,6.7v75C120,215.6,123,218.6,126.7,218.6z"/>
		<path d="M162.4,218.6c3.7,0,6.7-3,6.7-6.7v-75c0-3.7-3-6.7-6.7-6.7c-3.7,0-6.7,3-6.7,6.7v75C155.7,215.6,158.7,218.6,162.4,218.6z
			"/>
	</g>
</g>
</svg>
